<?xml version="1.0" encoding="UTF-8"?>
<!-- Created by Vectric (http://www.vectric.com/) -->
<svg width="3.60000000in" height="30.00000000in" viewBox="0.00000000 -1.75000000 3.60000000 30.00000000" id="svg2" version="1.1" xmlns="http://www.w3.org/2000/svg">
    <g id="0cf9e02c-255e-4cd6-a565-3a4cbe85c558" style="stroke:#000000;">
        <path style="fill:none;stroke-width:0.010000;stroke-linecap:round;stroke-linejoin:round;stroke-opacity:1;stroke:#000000;" d="M 2.228427,3.799873 L 2.225330,3.801274 C 2.220206,3.803800 2.214455,3.805248 2.208344,3.805248 C 2.187150,3.805248 2.170052,3.788175 2.169761,3.767053 L 2.169733,3.767053 L 2.169733,3.672042 L 2.169733,3.648984 L 2.169733,3.354913 L 1.790580,3.718235 L 1.411191,3.355510 L 1.411191,3.624858 L 1.411191,3.702831 L 1.411191,3.766582 L 1.411177,3.766582 C 1.411177,3.766636 1.411191,3.766704 1.411191,3.766762 C 1.411191,3.788137 1.393858,3.805468 1.372469,3.805468 C 1.368094,3.805468 1.363899,3.804719 1.359983,3.803373 L 1.356941,3.802484 L 1.533635,3.970331 L 1.533635,3.640955 L 1.790580,3.884773 L 2.046830,3.639235 L 2.046830,3.970331 L 2.228427,3.799873 "/>
        <path style="fill:none;stroke-width:0.010000;stroke-linecap:round;stroke-linejoin:round;stroke-opacity:1;stroke:#000000;" d="M 2.133045,4.192838 C 2.119392,4.192838 2.099385,4.175939 2.099045,4.175768 L 1.790587,3.884780 L 1.790587,3.885214 L 1.482115,4.176199 C 1.481775,4.176370 1.461767,4.193268 1.448114,4.193268 C 1.432226,4.193268 1.418531,4.184032 1.411990,4.170658 L 1.411990,4.414229 L 1.790587,4.052325 L 1.790587,4.051894 L 2.169170,4.413795 L 2.169170,4.170241 C 2.162628,4.183601 2.148933,4.192838 2.133045,4.192838 "/>
        <path style="fill:none;stroke-width:0.010000;stroke-linecap:round;stroke-linejoin:round;stroke-opacity:1;stroke:#000000;" d="M 2.223767,0.032919 C 2.223767,0.140890 2.136239,0.228421 2.028267,0.228421 C 1.920294,0.228421 1.832766,0.140890 1.832766,0.032919 C 1.832766,-0.075052 1.920294,-0.162583 2.028267,-0.162583 C 2.136239,-0.162583 2.223767,-0.075052 2.223767,0.032919 "/>
        <path style="fill:none;stroke-width:0.010000;stroke-linecap:round;stroke-linejoin:round;stroke-opacity:1;stroke:#000000;" d="M 2.570787,1.032936 C 2.570787,1.140907 2.483259,1.228438 2.375287,1.228438 C 2.267314,1.228438 2.179787,1.140907 2.179787,1.032936 C 2.179787,0.924965 2.267314,0.837434 2.375287,0.837434 C 2.483259,0.837434 2.570787,0.924965 2.570787,1.032936 "/>
        <path style="fill:none;stroke-width:0.010000;stroke-linecap:round;stroke-linejoin:round;stroke-opacity:1;stroke:#000000;" d="M 2.909565,2.025927 C 2.909565,2.133898 2.822037,2.221429 2.714065,2.221429 C 2.606092,2.221429 2.518565,2.133898 2.518565,2.025927 C 2.518565,1.917956 2.606092,1.830425 2.714065,1.830425 C 2.822037,1.830425 2.909565,1.917956 2.909565,2.025927 "/>
        <path style="fill:none;stroke-width:0.010000;stroke-linecap:round;stroke-linejoin:round;stroke-opacity:1;stroke:#000000;" d="M 1.226047,2.025927 C 1.226047,2.133898 1.313575,2.221429 1.421547,2.221429 C 1.529519,2.221429 1.617047,2.133898 1.617047,2.025927 C 1.617047,1.917956 1.529519,1.830425 1.421547,1.830425 C 1.313575,1.830425 1.226047,1.917956 1.226047,2.025927 "/>
        <path style="fill:none;stroke-width:0.010000;stroke-linecap:round;stroke-linejoin:round;stroke-opacity:1;stroke:#000000;" d="M 0.884515,3.032936 C 0.884515,3.140907 0.972043,3.228438 1.080015,3.228438 C 1.187988,3.228438 1.275515,3.140907 1.275515,3.032936 C 1.275515,2.924965 1.187988,2.837434 1.080015,2.837434 C 0.972043,2.837434 0.884515,2.924965 0.884515,3.032936 "/>
        <path style="fill:none;stroke-width:0.010000;stroke-linecap:round;stroke-linejoin:round;stroke-opacity:1;stroke:#000000;" d="M 0.531827,4.032936 C 0.531827,4.140907 0.619355,4.228438 0.727327,4.228438 C 0.835300,4.228438 0.922827,4.140907 0.922827,4.032936 C 0.922827,3.924965 0.835300,3.837434 0.727327,3.837434 C 0.619355,3.837434 0.531827,3.924965 0.531827,4.032936 "/>
    </g>
    <g id="4a7e8b8e-4e17-4234-b908-591343cbd72c" style="stroke:#000000;">
        <path style="fill:none;stroke-width:0.010000;stroke-linecap:round;stroke-linejoin:round;stroke-opacity:1;stroke:#000000;" d="M 1.174551,-1.678670 C 1.435801,-1.827463 1.949199,-0.700045 2.265894,-0.715002 C 2.294713,-0.716366 3.644744,3.219622 3.602744,3.251272 C 2.720328,3.916399 2.647640,4.162035 2.642487,5.128995 C 2.641777,5.262159 2.644054,5.768324 2.647409,6.353367 L 2.801108,27.702139 L 2.801136,27.703101 A 0.254167,0.254167 0 0,1 2.551216,27.961445 L 2.533952,27.961454 L 0.893795,27.961454 L 0.887535,27.961445 A 0.250085,0.250085 0 0,1 0.637366,27.711445 A 2.259178,2.259178 0 0,1 0.637803,27.678620 L 0.777620,8.543495 L 0.768660,8.543495 C 0.770735,8.335141 0.787237,7.013006 0.795698,6.069332 L 0.800023,5.477482 L 0.800091,5.477482 C 0.801187,5.306271 0.801224,5.182070 0.800052,5.128995 C 0.800858,4.920082 0.513158,4.550312 0.069941,4.449077 C 0.043161,4.442960 1.090960,1.511915 1.099075,1.482246 C 2.119158,1.452956 1.173707,-1.647060 1.174551,-1.678670 "/>
    </g>
</svg>
